<?xml version="1.0" encoding="utf-8"?>
<svg width="344px" height="113px" viewBox="0 0 344 113" version="1.1" xmlns:xlink="http://www.w3.org/1999/xlink" xmlns="http://www.w3.org/2000/svg">
  <g id="Group" transform="translate(2 2)">
    <path d="M0 0L340 0L340 109L0 109L0 0Z" id="Rectangle" fill="#F6EFEA" fill-rule="evenodd" stroke="#000000" stroke-width="4" stroke-linejoin="round" />
    <g id="YONK" transform="translate(39.11505 5.432541)">
      <path d="M38.0391 74.7422L38.0391 64.3711L38.3203 64.3711L49.6406 55.7227Q54.2461 52.207 54.2461 46.9688L54.2461 24.2227Q54.2461 23.2031 54.9141 22.3594L56.6016 20.3555L35.7539 20.3555L37.4414 22.3945Q38.1094 23.168 38.1094 24.2227L38.1094 30.7617Q38.1094 32.9063 38.1445 34.5938Q38.1797 36.2813 38.1973 38.3906Q38.2148 40.5 38.2148 44.8242Q38.2148 48.2344 35.5781 50.4141L30.0938 55.0195L24.6094 50.4141Q22.0078 48.2695 22.0078 44.8242L22.0078 24.2227Q22.0078 23.2031 22.6758 22.3594L24.3281 20.3555L3.51563 20.3555L5.20313 22.3945Q5.87109 23.168 5.87109 24.2227L5.87109 31.3066Q5.87109 33.7148 5.88867 35.666Q5.90625 37.6172 5.92383 40.0078Q5.94141 42.3984 5.94141 46.9688Q5.94141 52.1719 10.582 55.7227L21.8672 64.3711L22.043 64.3711L22.043 74.7773Q22.043 75.8672 21.375 76.6055L19.7227 78.6445L40.3945 78.6445L38.707 76.5703Q38.0391 75.832 38.0391 74.7422ZM68.2734 68.0977L79.5586 78.6445L101.672 78.6445L112.992 68.0977Q117.598 63.7734 117.598 57.4453L117.598 41.5547Q117.598 35.1914 112.992 30.9023L101.672 20.3555L79.5586 20.3555L68.2734 30.9023Q63.6328 35.2266 63.6328 41.5547L63.6328 57.4453Q63.6328 63.7383 68.2734 68.0977ZM144.035 48.1289L144.035 74.7422Q144.035 75.832 144.703 76.5703L146.391 78.6445L124.629 78.6445L126.352 76.5703Q126.984 75.7969 126.984 74.7422L126.984 41.168Q126.984 35.2617 130.676 31.5L141.574 20.3555L166.324 50.8359L166.324 24.2227Q166.324 23.2031 165.691 22.3945L163.969 20.3555L185.73 20.3555L184.043 22.3945Q183.375 23.168 183.375 24.2227L183.375 57.7969Q183.375 63.3516 179.684 67.5L169.734 78.6445L144.035 48.1289ZM195.117 24.2227L195.117 74.7422Q195.117 75.832 194.449 76.5703L192.762 78.6445L214.488 78.6445L212.801 76.6055Q212.168 75.832 212.168 74.7773L212.168 56.8477L230.871 56.8477Q233.578 56.8477 235.617 58.2539Q237.656 59.6602 237.621 62.5078L237.621 74.7422Q237.621 75.832 236.953 76.5703L235.266 78.6445L256.957 78.6445L255.305 76.6055Q254.637 75.8672 254.637 74.7773L254.637 60.0117Q254.637 57.0586 252.984 54.2285Q251.332 51.3984 248.801 49.5Q251.332 47.6016 252.984 44.7715Q254.637 41.9414 254.637 38.9531L254.637 24.2227Q254.637 23.2031 255.305 22.3594L256.957 20.3555L235.266 20.3555L236.953 22.3945Q237.621 23.168 237.621 24.2227L237.621 36.457Q237.656 39.3398 235.617 40.7285Q233.578 42.1172 230.871 42.1172L212.168 42.1172L212.168 24.2227Q212.168 23.2031 212.801 22.3594L214.488 20.3555L192.762 20.3555L194.449 22.3945Q195.117 23.168 195.117 24.2227ZM93.7266 33.8555L101.531 41.168L101.531 57.7969L93.7266 65.1094L87.5391 65.1094L79.6992 57.7969L79.6992 41.168L87.5391 33.8555L93.7266 33.8555Z" />
    </g>
  </g>
</svg>